<svg id="visual" viewBox="0 0 900 600" width="900" height="600" xmlns="http://www.w3.org/2000/svg" xmlns:xlink="http://www.w3.org/1999/xlink" version="1.1"><path d="M0 37L69 19L138 19L208 25L277 19L346 25L415 19L485 37L554 37L623 25L692 37L762 19L831 25L900 37L900 0L831 0L762 0L692 0L623 0L554 0L485 0L415 0L346 0L277 0L208 0L138 0L69 0L0 0Z" fill="#038373"></path><path d="M0 157L69 157L138 127L208 169L277 103L346 175L415 139L485 175L554 133L623 157L692 157L762 145L831 115L900 181L900 35L831 23L762 17L692 35L623 23L554 35L485 35L415 17L346 23L277 17L208 23L138 17L69 17L0 35Z" fill="#008977"></path><path d="M0 229L69 253L138 181L208 241L277 169L346 247L415 223L485 265L554 223L623 217L692 229L762 217L831 169L900 229L900 179L831 113L762 143L692 155L623 155L554 131L485 173L415 137L346 173L277 101L208 167L138 125L69 155L0 155Z" fill="#00907a"></path><path d="M0 271L69 301L138 253L208 295L277 223L346 301L415 295L485 319L554 259L623 259L692 271L762 271L831 205L900 277L900 227L831 167L762 215L692 227L623 215L554 221L485 263L415 221L346 245L277 167L208 239L138 179L69 251L0 227Z" fill="#00977d"></path><path d="M0 307L69 337L138 295L208 337L277 253L346 337L415 331L485 349L554 289L623 283L692 301L762 301L831 247L900 307L900 275L831 203L762 269L692 269L623 257L554 257L485 317L415 293L346 299L277 221L208 293L138 251L69 299L0 269Z" fill="#009d80"></path><path d="M0 409L69 433L138 427L208 445L277 421L346 427L415 427L485 433L554 409L623 421L692 427L762 403L831 421L900 415L900 305L831 245L762 299L692 299L623 281L554 287L485 347L415 329L346 335L277 251L208 335L138 293L69 335L0 305Z" fill="#00a483"></path><path d="M0 445L69 463L138 457L208 481L277 469L346 463L415 469L485 469L554 463L623 457L692 463L762 451L831 463L900 469L900 413L831 419L762 401L692 425L623 419L554 407L485 431L415 425L346 425L277 419L208 443L138 425L69 431L0 407Z" fill="#00aa85"></path><path d="M0 469L69 487L138 475L208 505L277 487L346 481L415 493L485 487L554 487L623 475L692 487L762 475L831 487L900 493L900 467L831 461L762 449L692 461L623 455L554 461L485 467L415 467L346 461L277 467L208 479L138 455L69 461L0 443Z" fill="#00b187"></path><path d="M0 517L69 517L138 517L208 535L277 517L346 517L415 523L485 523L554 517L623 523L692 517L762 523L831 529L900 523L900 491L831 485L762 473L692 485L623 473L554 485L485 485L415 491L346 479L277 485L208 503L138 473L69 485L0 467Z" fill="#00b889"></path><path d="M0 547L69 547L138 535L208 559L277 541L346 535L415 541L485 541L554 547L623 547L692 547L762 541L831 547L900 553L900 521L831 527L762 521L692 515L623 521L554 515L485 521L415 521L346 515L277 515L208 533L138 515L69 515L0 515Z" fill="#00bf8b"></path><path d="M0 571L69 577L138 565L208 577L277 571L346 565L415 571L485 565L554 571L623 577L692 571L762 559L831 577L900 571L900 551L831 545L762 539L692 545L623 545L554 545L485 539L415 539L346 533L277 539L208 557L138 533L69 545L0 545Z" fill="#00c58d"></path><path d="M0 601L69 601L138 601L208 601L277 601L346 601L415 601L485 601L554 601L623 601L692 601L762 601L831 601L900 601L900 569L831 575L762 557L692 569L623 575L554 569L485 563L415 569L346 563L277 569L208 575L138 563L69 575L0 569Z" fill="#00cc8e"></path></svg>